<?xml version="1.0" encoding="UTF-8" standalone="no"?>
<!-- Creator: CorelDRAW -->

<svg
   xmlns:dc="http://purl.org/dc/elements/1.1/"
   xmlns:cc="http://creativecommons.org/ns#"
   xmlns:rdf="http://www.w3.org/1999/02/22-rdf-syntax-ns#"
   xmlns:svg="http://www.w3.org/2000/svg"
   xmlns="http://www.w3.org/2000/svg"
   xmlns:sodipodi="http://sodipodi.sourceforge.net/DTD/sodipodi-0.dtd"
   xmlns:inkscape="http://www.inkscape.org/namespaces/inkscape"
   xml:space="preserve"
   width="400.55261mm"
   height="178.71577mm"
   style="clip-rule:evenodd;fill-rule:evenodd;image-rendering:optimizeQuality;shape-rendering:geometricPrecision;text-rendering:geometricPrecision"
   viewBox="0 0 400.55263 178.71578"
   id="svg2"
   version="1.1"
   inkscape:version="0.91 r13725"
   sodipodi:docname="logo.svg"
   inkscape:export-filename="/home/code4sa/github/code4sa/extractives/img/nigeria.png"
   inkscape:export-xdpi="42.169998"
   inkscape:export-ydpi="42.169998"><metadata
     id="metadata48"><rdf:RDF><cc:Work
         rdf:about=""><dc:format>image/svg+xml</dc:format><dc:type
           rdf:resource="http://purl.org/dc/dcmitype/StillImage" /><dc:title></dc:title></cc:Work></rdf:RDF></metadata><sodipodi:namedview
     pagecolor="#ffffff"
     bordercolor="#666666"
     borderopacity="1"
     objecttolerance="10"
     gridtolerance="10"
     guidetolerance="10"
     inkscape:pageopacity="0"
     inkscape:pageshadow="2"
     inkscape:window-width="1920"
     inkscape:window-height="1032"
     id="namedview46"
     showgrid="false"
     fit-margin-top="1"
     fit-margin-left="1"
     fit-margin-right="1"
     fit-margin-bottom="1"
     inkscape:zoom="0.64"
     inkscape:cx="759.49413"
     inkscape:cy="297.77276"
     inkscape:window-x="0"
     inkscape:window-y="24"
     inkscape:window-maximized="1"
     inkscape:current-layer="svg2" /><defs
     id="defs4"><style
       type="text/css"
       id="style6"><![CDATA[
    .str1 {stroke:black;stroke-width:0.1;stroke-opacity:0.501961}
    .str0 {stroke:black;stroke-width:0.1}
    .str2 {stroke:#1F1A17;stroke-width:0.5}
    .fil5 {fill:none}
    .fil0 {fill:white}
    .fil3 {fill:#C2C1C1;fill-rule:nonzero}
    .fil4 {fill:white;fill-rule:nonzero}
    .fil2 {fill:black;fill-rule:nonzero}
    .fil1 {fill:white;fill-rule:nonzero;fill-opacity:0.501961}
   ]]></style></defs><g
     inkscape:groupmode="layer"
     id="layer1"
     inkscape:label="map"
     transform="translate(52.140353,8.5858279e-6)"><path
       style="clip-rule:evenodd;fill:#ffffff;fill-opacity:0.58823529;fill-rule:evenodd;stroke:none;stroke-width:1.69333339;stroke-miterlimit:4;stroke-dasharray:none;stroke-opacity:1;image-rendering:optimizeQuality;shape-rendering:geometricPrecision;text-rendering:geometricPrecision"
       inkscape:connector-curvature="0"
       id="path10"
       d="m 55.317622,139.6773 c -0.0231,-0.3767 -0.1675,-1.1083 -0.1675,-1.4966 0,-0.3094 0.137,-0.4966 0.2828,-0.7585 0.1422,-0.2552 -0.0885,-0.3616 -0.1825,-0.594 0.0971,-0.3584 0.6022,-0.4034 0.6022,-0.8773 0,-0.4079 -0.1916,-0.7759 -0.1916,-1.1332 0,-0.7366 1.0415,-0.9374 0.9216,-1.5993 -0.0608,-0.3357 0.0629,-0.5928 -0.0183,-0.923 -0.4032,0 -0.5851,0.1137 -0.7573,-0.3198 -0.1163,-0.2929 -0.1032,-0.7315 -0.0453,-1.0144 0,-0.5564 0.0884,-1.1235 -0.0186,-1.6541 -0.6776,-0.1712 -0.3175,-0.7739 -0.219,-1.2429 0.13,-0.6183 0.7016,-0.4873 0.5293,-1.0509 -0.0427,-0.1396 -0.28,-0.8262 -0.2464,-0.9139 0.1776,-0.4626 0.5657,-0.2685 0.5657,-0.8773 0,-0.5247 -0.1042,-1.5591 -0.4471,-1.9648 l -0.0456,-2.9518 0.958,-0.1462 c -0.0699,-0.2815 -0.0607,-0.6244 -0.1003,-0.9231 -0.031,-0.2344 -0.0456,-0.4861 -0.0456,-0.7219 -0.1511,-0.0492 -0.3449,-0.0816 -0.5201,-0.1097 -0.25,-0.0402 -0.3985,-0.3532 -0.5475,-0.53 0,-0.2965 0.0779,-0.928 -0.2281,-1.0053 -0.0932,-0.3769 -0.0096,-1.0383 0.0639,-1.4256 0.1222,-0.6431 0.1826,-1.1897 0.1642,-1.846 l -1.0537,-1.8428 c 0.0238,-0.0737 0.0566,-0.1506 0.1056,-0.2317 0.4447,-0.7354 0.4597,-1.6332 0.8212,-2.3578 0.0775,-0.1554 0.2716,-0.8751 0.2007,-1.0601 -0.1821,-0.4744 -0.037,-0.6536 0.0912,-1.0235 0.0137,-0.0397 0.0757,-0.0157 0.0913,-0.0548 0.0932,-0.2334 0.146,-0.4175 0.146,-0.6946 0,-0.1596 0.0139,-0.2635 -0.0183,-0.4204 -0.0228,-0.1111 -0.1247,-0.2413 -0.2007,-0.2741 -0.1527,-0.0659 -0.6085,-0.8124 -0.6205,-0.9687 -0.0145,-0.1894 -0.1471,-0.7134 -0.2015,-0.9322 -0.1419,-0.5703 0.5207,-0.8562 0.2555,-1.389 -0.2907,-0.5839 0.3959,-0.5826 0.6296,-0.9139 0.1987,-0.2816 0.3181,-1.1617 0.3376,-1.507894 0.034,-0.6009 -0.1991,-1.18021 -0.219,-1.81861 -0.005,-0.1623 0.0456,-0.2122 -0.1004,-0.2924 -0.1683,-0.0924 -0.3049,-0.1903 -0.0639,-0.3107 0.184,-0.0919 -0.1464,-0.2456 -0.1003,-0.3656 0.0959,-0.2496 0.3658,-0.1767 0.2098,-0.4204 -0.1136,-0.1776 0.0138,-0.3798 -0.0547,-0.5483 -0.1173,-0.2883 -0.5171,-0.8351 -0.0365,-1.0692 0.3713,-0.1809 0.4038,-0.0146 0.3376,-0.4935 -0.0234,-0.1697 0.0809,-0.4748 0.0365,-0.5849 -0.064,-0.1586 -0.2459,-0.1638 -0.0365,-0.3381 0.2919,-0.243 -0.0139,-0.3352 -0.0274,-0.5757 -0.0093,-0.1644 0.2202,-0.1814 0.3102,-0.2925 0.0939,-0.1158 0.1035,-0.3776 0.1004,-0.5209 -0.0046,-0.210601 -0.2435,-0.301801 -0.1004,-0.484301 0.2032,-0.2591 0.1674,-0.5675 0.219,-0.8774 0.0202,-0.1218 0.0489,-0.297 0.0183,-0.4203 -0.0161,-0.0652 -0.0283,-0.1206 -0.0446,-0.1789 l 0.7015,-0.0222 c 0.6659,0 1.2696,0.1849 1.9344,0.0457 0.4665,-0.0977 0.92,-0.2537 1.3777,-0.3655 0.2347,-0.0574 0.53,-0.062 0.7391,-0.1737 0.6009,-0.2634 0.7215,-0.2182 0.7573,-0.8864 0.0296,-0.5539 0.4525,-0.8698 0.5383,-1.3982 0.0741,-0.4561 0.2159,-0.5825 0.4471,-0.9505 0.2926,-0.465804 0.2761,-0.929904 0.1278,-1.443904 -0.1524,-0.5278 -0.4025,-1.4274 -0.3194,-1.9648 0.1111,-0.9933 0.8007,-1.0081 1.3595,-1.6998 0.618401,-0.7653 0.866901,-1.1433 0.866901,-2.0836 0.5624,-0.139 2.1498,-0.3558 1.5055,-1.2246 -0.7416,-1.0002 0.0898,-1.8033 0.9124,-2.2664 0.4623,-0.136 0.9738,-0.3655 1.4599,-0.3655 0.1841,0 0.8581,0.177 0.958,0.0548 0.1023,-0.1252 0.3436,-0.3869 0.4836,-0.4569 0.2249,-0.1123 0.219,-0.525 0.219,-0.7494 0,-0.3138 0.5316,-0.3303 0.6478,-0.594 0.1957,-0.4443 0.0923,-1.1201 0.1369,-1.6084 0.0797,-0.7279 0.5674,-0.8127 1.0766,-1.1241 0.1208,-0.0739 0.1597,-1.1225 0.1187,-1.2885 -0.3763,-0.0945 -0.8359,-0.323 -1.1953,-0.5027 -0.3662,-0.183 -0.2826,-0.7521 -0.5019,-1.1058 -0.2932,-0.4731 0.9182,-1.8931 0.8121,-2.5679 0.1928,-0.4354 0.7649,-1.2649 1.3321,-0.9139 0.2102,0.13 1.5585,1.0128 1.688,0.7768 0.1386,-0.2523 0.2008,-0.7366 0.2008,-1.0327 0,-0.6444 0.173,-1.1993 0.4197,-1.7912 0.3166,-0.7593 0.2959,-1.4205 0.146,-2.2481 -0.0857,-0.4737 -0.3683,-0.4042 -0.6935,-0.6123 -0.2695,-0.1726 -0.3341,-0.4407 -0.4927,-0.6945 -0.1999,-0.6042 -0.5767,-1.1282 -0.4562,-1.7912 0.1019,-0.5611 0.5613,-1.1022 0.4653,-1.6815 -0.0684,-0.4133 -0.0843,-0.8744 -0.3102,-1.2337 -0.1018,-0.1621 -0.4197,-0.2312 -0.5741,-0.3656 l -0.0548,-1.7729 -2.865,-1.846 -1.1861,-1.188 1.0401,-5.465 1.0304,-2.0013 0,0 1.3237,-1.0327 -0.1278,-0.987 -0.9489,-0.5666 -0.0365,-1.4439 1.0767,-1.1149 -0.8394,-2.8147 0.0912,-1.6084 0.2999,-0.9188 -0.0728,-4.8048 5.1688,-4.2224 1.638,-2.5844 1.2012,-1.6744 0.6916,-3.3488 -0.0179,-5.8355995 1.7848,-0.1155 4.2701,-3.7652 7.2811,-1.9556 0.5657,0.859 1.8979,0.1462 1.0584,-0.3655 3.978097,0.2193 1.1314,-1.2063 0.0913,-0.7677 3.303,-0.82240008 2.1715,0.95040008 0.2372,0.3107 0.6022,0.0366 2.1899,0.9138 4.7081,1.5536 1.2226,0.6945 2.3176,-0.5848 3.0109,1.3342 4.76291,5.1176995 1.8796,3.3813 0.6387,0.5849 0.0912,0.8773 0.657,0.0365 0.4379,0.6215 0.8759,0.6762 2.3358,0.0914 1.0585,-0.5483 1.5876,-1.8277 2.8102,0.8042 7.7921,-4.8984 5.4928,0.9687 1.75179,1.3526 0.8577,0.1644 2.8833,2.833 1.4051,-0.1645 1.2956,0.5484 0.8395,0.8042 0.5109,0.9138 5.9308,2.1933 0.7664,-0.1828 4.1789,0.2925 1.6423,0.1828 1.9526,-0.0549 2.6095,0.2559 1.5147,-0.2742 2.5,-2.7416 0.8212,-1.1514 1.6788,-1.6998 2.0256,-1.517 3.0293,-1.3526 2.6825,0.2925 2.062,-0.6946 2.0256,-0.8407 1.0767,-0.3473 7.8833,-0.2924 7.4819,0.3107 1.4416,0.4021 1.8978,0.8042 3.4855,0.8407 1.9891,1.1698 1.843,1.2977 1.5337,0.1504 c 0.025,-0.019 0.0507,-0.0428 0.0725,-0.0682 0.1177,-0.1375 0.2179,-0.4652 0.4197,-0.4752 0.2991,-0.0149 0.1118,0.5313 0.739,0.3473 0.4754,-0.1394 0.2052,0.402 0.511,0.5392 0.5204,0.2335 0.4683,-0.2173 1.0675,0.0822 0.3062,0.153 0.6859,-0.094 1.0311,-0.0548 0.4857,0.0552 1.0508,0.6221 1.5329,0.4295 0.5301,-0.2118 0.3546,-0.7383 0.4288,-1.1697 0.1057,-0.6144 0.359,-0.261 0.7573,-0.4478 0.8071,-0.3785 0.4937,-0.6885 0.1916,-1.1424 -0.1925,-0.2892 0.2799,-0.249 0.3924,-0.3107 0.1575,-0.0864 -0.2002,-0.3902 -0.1369,-0.4478 0.2626,-0.239 0.2791,0.2215 0.3924,-0.2559 0.0856,-0.3607 0.2529,-0.1962 0.5383,-0.2284 0.1439,-0.0162 0.4482,-0.4634 0.6022,-0.3199 0.4449,0.4146 0.4451,0.5211 0.7026,-0.1279 0.231,-0.582 0.4869,-0.099 0.7938,-0.3564 0.24,-0.2014 0.5541,-0.6073 0.6113,-0.9139 0.0789,-0.4229 0.2756,-0.1904 0.4653,-0.2011 0.1667,-0.0094 0.1069,-0.3244 0.2281,-0.4203 0.1414,-0.1118995 0.2594,0.0601 0.3924,-0.1919995 0.0803,-0.1523 -0.0134,-0.803 0.3285,-0.5665 0.2966,0.2052 0.4181,-0.9025 0.739,-0.9962 0.3614,-0.1055 0.2774,0.271 0.6114,0.2559 0.2535,-0.0114 0.5843,-0.4685 0.8029,-0.6031 0.0888,-0.0547 0.1797,-0.0609 0.2828,-0.0549 0.0474,0.0028 0.101,0.0343 0.1552,0.0366 0.1959,0.0083 0.4148,0.0518 0.5565,-0.1371 0.0485,-0.0647 0.3708,-0.3396 0.4198,-0.2742 0.2169,0.2894 0.7899,-0.6105 0.6387,0.0092 -0.2651,1.0866 1.2773,-0.7241 1.2773,-0.0366 0,0.2605 -0.0175,0.544 0.292,0.2194 0.4151,-0.4355 0.8322,0.5851 1.1406,-0.2468 0.0588,-0.1589 0.0131,-0.3093 0.1733,-0.4021 0.4039,-0.234 -0.1119,-0.6168 0.2373,-0.5666 0.3561,0.0512 0.5776,-0.123 0.2372,-0.3838 -0.3873,-0.2967 0.2388,-0.4893 0.4836,-0.6946 0.3537,-0.2967 0.4861,-0.8177 0.9306,-0.9412 0.435,-0.1208 0.893,-0.134 1.3395,-0.201 l 4.0617,0.1461 0,0 8.1364,11.5746995 0,0 2.1106,9.2707 0.0365,1.1606 c 0,0.508 10e-4,0.5417 -0.3924,0.7676 -0.4267,0.2449 0.1198,0.5593 0.2373,0.7951 0.0479,0.0963 -0.1523,0.3375 -0.146,0.5118 0.009,0.2552 0.4158,0.5398 0.6295,0.6214 0.3316,0.1268 0.9097,-0.1113 1.1588,0.0457 0.2021,0.1273 0.2204,0.3673 0.5292,0.2193 0.4477,-0.2147 0.3167,-0.229 0.803,-0.0183 0.3319,0.1437 0.6859,0.0139 1.031,-0.0182 0.4061,-0.1356 0.4381,-0.0381 0.5931,0.2741 0.0668,0.1344 0.2969,-0.0274 0.4197,-0.0274 0.3818,0 0.3515,0.5097 0.7938,0.393 0.3167,-0.0835 0.0852,0.4821 0.0548,0.6214 -0.0369,0.1689 0.7365,0.4626 0.8394,0.6032 0.1634,0.2235 -0.3105,0.4687 -0.0182,0.5757 0.0971,0.0356 0.6447,0.1432 0.6751,0.1736 0.2175,0.2175 0.2051,0.5461 0.3924,0.7494 0.2417,0.2623 0.5195,-0.1919 0.7208,-0.1919 0.0493,0.1995 0.1916,0.4335 0.1916,0.6488 0,0.2782 -0.3558,0.2966 -0.3558,0.5666 0,0.2114 0.0229,0.3055 -0.0548,0.5209 -0.3628,0.3635 -0.1081,0.3761 0.0821,0.6306 -0.34,0.455 -0.6615,0.2238 -0.4197,0.923 0.1369,0.3958 0.3832,0.6019 0.3832,1.0692 0,0.261 -0.3346,0.4377 -0.2919,0.5666 0.0309,0.0935 0.1909,0.1317 0.2098,0.2468 0.0601,0.366 -0.7877,0.5694 -0.6022,1.0509 0.085,0.2205 -0.008,1.3081 -0.1186,1.5445 -0.1055,0.2264 -0.7997,0.8073 -1.0219,0.9047 0.0708,0.8626 0.9551,0.1179 1.1132,0.7951 0.0957,0.4103 0.5288,0.6687 0.6478,1.1332 0.2774,1.0832 -0.7164,2.3541 -1.7793,2.6228 -0.7921,0.2003 -1.058,1.0509 -1.7609,1.0509 -0.4858,0 -0.8198,0.6167 -1.2136,0.8316 -0.5614,0.3751 -0.9504,0.8404 -1.5876,1.0967 -0.6085,0.2447 -0.8682,0.4452 -1.3139,0.9138 -1.11,1.1669 -1.4459,-0.1306 -2.4179,0 -0.8756,0.1177 -1.0455,-0.7037 -1.7428,-0.7311 -0.5988,-0.0236 -0.9201,1.6684 -1.323,2.0837 -0.1893,0.1681 -0.1587,0.5525 -0.292,0.6488 -0.1331,0.0961 -0.4744,0.0447 -0.4744,0.2468 0,0.5368 -0.2695,0.4935 -0.3832,0.9778 -0.0823,0.3502 -0.4264,0.1904 -0.6296,0.4478 -0.2303,0.2915 -0.3555,1.0754 -0.584,1.2246 -0.2171,0.1419 -0.4967,-0.0366 -0.739,-0.0366 -0.4794,0 -0.2763,0.3242 -0.4106,0.594 -0.0587,0.1181 -0.2134,0.1762 -0.2646,0.2925 -0.1451,0.329 0.1275,0.9288 0.1368,1.2702 -0.0441,0.1783 -0.0491,0.8912 -0.3741,0.8317 -0.4266,-0.078 -0.4227,0.0853 -0.447,0.4569 -0.0156,0.2375 -0.3042,0.0721 -0.4289,0.1554 -0.1391,0.0928 -0.3396,0.4631 -0.1277,0.5757 0.3052,0.1621 -0.1176,0.5979 -0.2738,0.7037 -0.2415,0.1637 -0.0592,0.2635 -0.1186,0.5026 -0.0593,0.2391 -0.358,0.1855 -0.5383,0.3473 -0.3093,0.2778 0.0866,0.4165 -0.1277,0.658 -0.2362,0.2664 0.0549,0.5538 -0.2464,0.7402 -0.3323,0.2056 0.0376,0.9506 -0.0639,1.3068 0,0.2131 0.7649,0.5617 0.2738,0.6946 -0.3718,0.1007 -0.8395,-0.1777 -0.8395,0.4112 0,0.3124 0.0195,0.2491 -0.1733,0.5118 -0.1837,0.2504 -0.1174,0.5071 -0.0639,0.7859 0.0408,0.2132 0.2999,1.0055 0.2737,1.1423 -0.098,0.5112 -0.1753,1.4912 -0.5474,1.8643 -0.4028,0.404 -0.1317,0.3874 -0.1643,0.923 -0.3973,0.4573 -0.449,-0.0242 -0.6478,0.6215 -0.0725,0.2354 -0.9758,0.1744 -0.7299,0.4203 0.1062,0.1062 0.3284,0.4029 0.1095,0.5118 -0.1451,0.0722 -0.3435,-0.3166 -0.6296,-0.1736 0,0.093 0.0312,0.212 0.009,0.3015 -0.4218,0.1066 -0.8313,-0.1288 -1.2226,0.0275 -0.6637,0.2653 -0.3654,0.9598 -0.7209,1.2245 -0.2783,0.2071 -0.6752,-0.0372 -0.6752,0.4844 0,0.5841 0.3463,0.4171 0.5475,0.7676 0.4996,0.8701 -0.8059,0.6921 -0.6843,1.3983 0.0732,0.4256 -0.1796,0.5598 0.2098,0.7859 0.3038,0.1763 0.939,0.3636 0.657,0.8225 -0.269,0.5372 -0.7026,0.8937 -0.7026,1.5535 0,0.163 0.1015,0.2594 0.1095,0.393 0.0134,0.2243 -0.1953,0.3068 -0.3285,0.4478 -0.4798,0.5083 0.2037,2.2135 -0.812,2.3578 -0.3378,0.048 -0.4519,0.2084 -0.73,0.3564 -0.666,0.3339 -1.4827,0.2978 -2.1442,0.5392 -0.4208,0.1535 -1.1645,0.8508 -1.469,1.188 -0.3232,0.3581 -0.2373,0.6763 -0.812,0.6763 -0.6035,0 -0.4972,0.658 -1.0767,0.658 l -0.009,0.009 c 0,0.4043 0.6552,0.5392 0.9671,0.5392 0.7136,0 0.118,0.8718 0.146,1.242804 0.0346,0.4576 -0.1614,0.7531 -0.1733,1.1789 -0.1726,0.2758 -0.3194,0.7777 -0.3194,1.1149 0,0.3112 0.3089,0.315 0.219,0.7403 -0.1501,0.7104 -0.5195,1.6634 -1.0402,2.1841 -0.3038,0.3038 -0.6368,1.028501 -0.4836,1.462201 0.1218,0.3446 -0.1778,0.7295 -0.374,0.9961 0.0463,0.3767 0.7483,0.6209 0.1824,1.1058 -0.3344,0.2864 -0.1199,0.8256 -0.2919,0.9779 -0.0672,0.0596 -0.3934,-0.2498 -0.4836,-0.2925 -1.3411,-0.6343 -0.4907,2.3591 -1.9435,1.9557 -0.3276,0.1365 -0.885,0.1163 -0.885,0.5483 0,0.214 0.0901,0.4844 -0.2555,0.4844 -0.7004,0 -0.9412,-0.7956 -1.469,-0.8225 -0.5859,-0.0298 -0.5671,0.5428 -1.2044,0.3473 -0.3802,-0.1167 0.2627,0.95571 0.3011,1.03261 0.3004,0.602194 -1.1463,1.511094 -1.5877,1.654094 -0.4884,0.1581 -0.6649,1.0506 -1.0584,0.8773 -0.323,-0.1422 -0.4543,-0.3266 -0.8394,-0.3564 l -0.3652,0.923 0.1094,4.0942 -1.0764,1.0783 0.2099,2.6137 c -0.0992,0.1278 -0.0798,0.2689 -0.1369,0.4112 -0.0465,0.1162 -0.3019,0.2019 -0.4014,0.2925 -0.2129,0.1941 -0.295,0.5509 -0.4836,0.795 l -1.25,1.6176 c -0.2608,0.3376 -0.2241,0.804 -0.4198,1.0875 -0.2573,0.3725 -0.4584,0.5778 -0.6478,1.0235 -0.089,0.2094 -0.3127,0.1095 -0.4288,0.4295 0,0.3954 0.3085,0.5214 0.2098,0.923 -0.0607,0.2467 -0.0733,0.5086 0.1004,0.7037 0.1157,0.1298 -0.1734,0.3197 -0.1734,0.4387 0,0.1757 0.3368,0.2359 0.2738,0.4386 -0.1363,0.439 -0.7131,0.2485 -0.9307,0.4661 -0.1965,0.1965 -0.1031,0.2195 -0.4288,0.2011 -0.2069,-0.0117 -0.4794,0.1977 -0.5293,0.3929 -0.0824,0.3218 0.2967,0.4997 0.1552,0.8591 -0.154,0.2822 0.1304,0.5756 -0.3376,0.795 -0.3053,0.1432 -0.5357,0.4212 -0.4015,0.7768 0.1073,0.2841 -0.1657,0.2063 -0.2372,0.4387 -0.0392,0.1274 -0.009,0.2737 -0.0913,0.3929 -0.0924,0.1339 -0.2736,0.1357 -0.3193,0.329 -0.0989,0.4174 0.3237,0.3034 0.5383,0.3564 0,0.2935 -0.4015,0.5038 -0.4015,0.6854 0,0.2513 0.1004,0.449 0.1004,0.722 0,0.488 0.4505,1.0105 0.1186,1.517 -0.0859,0.1891 -0.3919,0.3626 -0.4836,0.0914 -0.2185,0 -0.1294,0.4272 -0.3741,0.2102 -0.2775,-0.2462 -0.5162,-0.1567 -0.666,0.1645 -0.4097,0.8786 -1.0097,0.0505 -1.4508,0.6854 -0.0578,0.0833 -0.8805,0.7428 -0.958,0.7402 -0.214,-0.007 -0.5146,-0.0869 -0.5019,0.2376 0.0163,0.4164 0.1501,0.2651 -0.1368,0.5301 -0.1525,0.141 -0.073,0.2573 -0.073,0.4386 0,0.2178 -0.5674,0.2203 -0.7391,0.4021 -0.3313,0.351 -0.3719,0.8774 0.1369,1.0601 0.1533,0.385 -0.2273,0.5131 0.3102,0.6489 0,0.3677 -0.6991,0.3682 -0.3924,0.8133 0.2577,0.3739 0.3054,0.5618 -0.2007,0.7859 -0.305,0.1351 -0.1825,0.3075 -0.1825,0.6123 0,0.4596 -0.0928,0.4088 -0.4288,0.722 -0.1867,0.1739 -0.2429,0.8673 -0.7117,0.8407 -0.1699,-0.01 -0.457,-0.2916 -0.584,-0.1462 -0.1265,0.1447 -0.7109,0.1912 -0.6752,0.2833 0.129,0.3328 0.1504,0.4556 0.0548,0.8408 -0.1059,0.4263 -0.5658,0.2279 -0.9216,0.329 -0.3255,0.0926 -0.3323,0.4169 -0.4379,0.4569 -0.2283,0.0863 -0.6567,-0.1611 -0.73,-0.3747 -0.0744,-0.4106 -0.6604,-0.2208 -0.8759,-0.0914 -0.4221,0.2533 -0.2943,-0.0222 -0.6205,-0.1279 -0.7042,-0.2284 -0.2521,0.5458 -0.9124,0.5209 -0.7162,-0.0271 -0.2701,0.0624 -0.7299,-0.3107 -0.1772,-0.1439 -0.2188,0.02 -0.3924,0.0914 -0.4484,0.1843 -0.4014,-1.1172 -0.4014,-1.3434 0,-0.5601 0.154,-1.7447 -0.3194,-2.0562 -0.9505,-0.6257 -1.7381,0.8458 -2.6734,-0.009 -0.3751,-0.3428 -0.2861,-0.5896 -0.3193,-1.0966 -0.0182,-0.2784 -0.2472,0.0188 -0.3559,-0.2285 -0.2191,-0.498 -0.958,-0.6103 -1.323,-1.2611 l 0.4197,-1.7089 c -0.3314,-0.1511 -0.9379,-0.613 -1.3139,-0.4387 -0.3575,0.1658 -0.7318,-0.4283 -1.0037,-0.6854 -0.2702,-0.2553 -0.4777,-0.2312 -0.5748,-0.6214 -0.136,-0.5468 -0.7744,-0.0785 -1.0767,-0.3199 -0.0414,-0.033 -0.4617,-0.3977 -0.4562,-0.4386 0.0353,-0.2631 0.1551,-0.371 0.1551,-0.6672 0,-0.4105 -0.2758,-0.6195 -0.5748,-0.859 l -0.3285,3.2442 c -0.1327,0.2665 -0.1185,0.638 -0.3011,0.8773 -0.0559,0.0734 -0.1387,0.1108 -0.2098,0.1645 -0.1212,0.0914 -0.2267,0.1741 -0.3832,0.192 l -0.2646,0.3015 -0.4928,-0.3198 -4.48,0.4295 -0.812,-0.7311 c -0.0937,-0.1471 -0.0468,-0.3281 0.0547,-0.4569 0.0708,-0.0897 -0.0314,-0.2584 -0.0547,-0.3564 -0.0239,-0.101 0.0365,-0.2238 0.0547,-0.3199 0.0365,-0.1929 0.0187,-0.2339 -0.0639,-0.4112 -0.0307,-0.0658 -0.0959,-0.0765 -0.0912,-0.1554 0.002,-0.0367 0.0357,-0.1253 0.009,-0.1554 -0.0663,-0.0753 -0.2304,-0.0177 -0.3102,-0.009 l -5.0731,4.4962 c -0.3547,0.3283 -0.6181,0.0283 -0.9945,-0.0822 -0.3965,-0.1163 -0.6924,0.2961 -0.7209,0.658 -0.0243,0.3098 -0.1332,0.4661 -0.2372,0.7402 -0.0998,0.2627 0.1262,0.5898 -0.146,0.7037 -0.2135,0.0894 -0.025,0.2049 -0.0365,0.3838 -0.2151,0.2164 -0.8577,2.2709 -0.8577,2.5863 -0.2686,0.0888 -0.6471,0.0559 -0.8485,-0.1463 -0.2017,-0.2026 -0.5681,0.0559 -0.8759,0.009 -0.3101,-0.0471 -0.4129,0.1376 -0.4289,0.4204 -0.0312,0.5488 -0.1538,0.5163 -0.5383,0.7767 -0.5868,0.3976 -0.9763,0.1198 -1.6424,-0.009 l -0.7573,2.6411 c -0.4508,-0.2248 -1.2748,-1.3495 -1.4325,-0.3199 -0.1084,0.7083 -0.6205,1.3637 -1.0584,1.9374 -0.3006,0.394 -0.2587,1.0429 -0.8851,0.9596 -0.9757,-0.1297 -1.2527,0.6481 -1.5055,1.4074 l -1.4964,1.453 -2.5088,1.948 -0.4302,0.3306 -0.2938,0.5791 -0.3713,0.1763 0.2738,0.8225 c -0.0602,0.0903 -0.2378,0.7162 -0.2008,0.8134 0.1232,0.3236 -0.3458,0.2474 -0.2919,0.4935 0.1374,0.6279 -0.8306,0.37 -0.1278,1.0326 0.2379,0.2244 0.6214,0.553 0.7573,0.8591 0.1279,0.2878 0.5865,0.9997 0.4562,1.2611 -0.1152,0.2309 -0.3924,0.4716 -0.5474,0.7128 -0.228,0.3545 -0.5365,0.7456 -0.7208,1.1241 -0.2342,0.3516 -0.3653,0.8681 -0.1278,1.252 0.1807,0.292 -0.076,0.5582 -0.1551,0.8682 -0.1575,0.6176 -0.433,2.0095 -0.2372,2.6136 0.0974,0.3004 -0.1216,0.4167 -0.3011,0.6397 l -0.4653,0.8956 c -0.0712,0.1371 -0.4019,0.1807 -0.5384,0.3016 -0.4538,0.4021 -0.4083,0.9404 -0.6934,1.3617 -0.189,0.2795 -0.5032,0.2614 -0.3194,0.6305 0.08,0.1608 -0.7694,0.5002 -0.7482,0.8316 0.0172,0.2684 0.1539,0.458 -0.2189,0.5666 -0.3638,0.1059 -0.6022,0.1288 -0.6022,0.6032 0,0.3224 0.3846,0.5986 0.3559,0.9687 l -0.7118,0.3473 0,0 c 0,-0.0414 -0.2439,-0.1472 -0.292,-0.1645 -0.1425,-0.0511 -0.1831,-0.0462 -0.3102,0.0457 -0.2193,0.1584 -0.2241,0.5274 -0.2646,0.7676 -0.0293,0.1744 -0.1362,0.3766 -0.0912,0.5666 0.0859,0.3631 -0.1082,0.5376 -0.4106,0.6306 -0.1703,0.0524 -0.3506,0.2015 -0.5201,0.1919 -0.2843,-0.016 -0.3467,-0.3412 -0.3467,-0.5666 0.2533,-0.5721 -0.095,-0.2901 -0.438,-0.1462 -0.5543,0.2324 -0.4033,-0.043 -0.8394,-0.2742 -0.2463,-0.1305 0.0547,-0.3278 0.0547,-0.4386 0,-0.2352 -0.5054,-0.0513 -0.7482,-0.1919 -0.2331,-0.1351 -0.6856,-0.8198 -0.7299,-1.0784 -0.0942,-0.5488 -1.1748,-0.8323 -0.73,-1.3343 0.1232,-0.139 0.1913,-0.3225 0.2203,-0.4188 0.0705,-0.2345 -0.4657,0.3463 -0.5852,0.3366 -0.1723,-0.014 -0.375,-0.3542 -0.5383,-0.457 -0.4484,-0.2822 -1.208,-1.354 -1.0311,-0.6305 0.1615,0.0399 0.8136,0.6084 0.9124,0.7311 0.2529,0.3144 0.4589,0.6854 0.657,1.0418 0.1635,0.2943 0.4536,0.3882 0.6204,0.6397 0.0664,0.1003 -0.0719,0.2754 0.0183,0.3564 0.0842,0.0755 0.4372,0.3389 0.2828,0.4752 -0.3619,0.3197 -0.3989,-0.4982 -0.7026,-0.4204 -0.085,0.0217 -0.6584,-0.3147 -0.5748,-0.1462 0.0346,0.0696 0.212,0.1909 0.2829,0.2011 l 0.52,0.7037 c 0.4055,0.3592 0.8218,0.484 0.6935,1.1149 -0.0654,0.3215 0.3679,0.7645 0.0639,1.0692 -0.1317,0.1321 -0.0488,0.0708 -0.009,0.2285 0.0656,0.2617 0.3285,0.4704 0.3468,0.7311 0.0501,0.7129 -0.6594,0.0342 -0.8121,0.6488 -0.071,0.2862 -0.2033,0.5356 -0.2555,0.8408 -2.365,-0.4745 -5.04659,-0.0841 -7.44539,0.0548 -0.6959,0.0403 -1.7298,0.4704 -2.3358,0.3838 -0.4874,0.0307 -1.0859,0.1247 -1.542,0.2925 -0.3604,0.1327 -0.5683,0.3448 -0.9398,0.2924 -0.0635,-0.1117 -0.1369,-0.5845 -0.3741,-0.3473 0,0.1912 0.0496,0.4421 0.009,0.6032 -0.332,0.19 -1.4568,0.1946 -1.8704,0.2467 -0.888,0.1118 -1.5558,0.1196 -2.4362,-0.0274 -0.35,-0.1304 -0.3205,-0.2086 -0.2464,-0.5209 0.0423,-0.1785 0.2161,-0.3047 0.2885,-0.4357 0.0331,-0.0606 0.017,-0.0471 -0.0423,-0.0574 -0.1606,-0.0284 -0.5278,-0.1069 -0.4652,0.0544 0.0719,0.1855 0.0226,0.5085 -0.0365,0.6854 -0.0612,0.1835 0.0696,0.3601 0.0822,0.5392 0.0261,0.3719 -0.1744,0.336 -0.4745,0.4113 -0.5281,0.1325 -1.0209,0.3866 -1.542,0.5209 -0.3824,0.0986 -1.2802,0.006 -1.396,-0.4113 -0.1072,-0.3868 0.8054,-1.0491 0.9945,-1.3982 0.2076,-0.2076 0.4793,-0.5112 0.6205,-0.7676 0.1265,-0.2295 0.2811,-0.0731 0.4836,-0.0731 0,-0.018 0.006,-0.0316 -0.009,-0.0366 0,-0.0577 -0.2652,-0.4604 -0.3102,-0.5118 l -0.4471,-0.5117 c -0.3803,-0.4352 -0.5389,-1.1277 -1.1223,-1.3526 -0.2972,-0.0245 -0.631,-0.25 -0.8759,-0.4301 -0.0916,-0.0676 -0.0942,-0.0436 -0.0445,0.0583 0.1493,0.3057 0.8432,0.609 1.0482,0.7831 0.634,0.5387 0.486,1.7556 0.4106,2.4948 -0.0911,0.8934 -0.5244,0.5035 -1.0858,0.6763 -0.5818,0.1792 -0.972,0.5063 -1.6424,0.2468 -0.2038,-0.0788 -0.0846,-0.4586 -0.146,-0.658 -0.1336,-0.4342 -0.1852,-0.8326 -0.292,-1.2703 -0.1255,-0.5147 -0.132,-0.8037 -0.0912,-1.3251 0,-0.0928 -0.3091,-0.8422 -0.4431,-1.0864 -0.0511,-0.0931 -0.0527,-0.0831 -0.0467,0.01 0.028,0.4166 0.2526,0.7813 0.2526,1.2227 0,0.4245 0.1734,1.5616 -0.0639,1.8552 -0.1083,0.1341 0.1593,0.8976 0.2099,1.0692 0.1305,0.443 0.8463,1.1779 0.2189,1.4713 -0.5023,0.2348 -1.9171,-0.155 -2.354,-0.4021 -0.8404,-0.4752 -0.7597,-2.2139 -1.0767,-3.034 -0.1136,-0.6108 0.7551,-0.6147 0.2646,-1.2429 -0.0839,-0.1073 -0.8136,-0.7418 -0.7895,-0.5847 0.0423,0.2753 0.3878,0.5482 0.5797,0.7401 0.374,0.374 -0.412,0.7348 -0.4289,1.0326 -0.0174,0.3077 0.2469,0.8943 0.3559,1.1972 0.1787,0.497 0.1779,1.0896 0.3284,1.6084 0.1483,0.5111 1.2615,1.1149 0.1916,1.1149 -0.4832,0 -1.0383,0.1548 -1.5146,0.0731 -0.8855,0.1488 -0.7136,-0.6991 -0.885,-1.3434 -0.0543,-0.2041 0.1465,-0.4297 0.1003,-0.5574 -0.1187,-0.3285 -0.2807,-0.3291 -0.2554,-0.7768 0.0232,-0.4095 0.2234,-0.6393 0.3649,-0.987 0.1566,-0.3845 0.0639,-0.7475 0.0639,-1.1515 l -0.0183,0 c 0,0.3957 -0.1144,0.8738 -0.2646,1.2429 -0.2286,0.5613 -0.5819,0.8308 -0.3011,1.517 0.0753,0.184 0.1222,0.9194 -0.0821,0.457 -0.0613,-0.1387 -0.0726,-0.2722 -0.1186,-0.4113 -0.0474,-0.143 -0.5292,-1.4585 -0.5292,-0.7402 0,0.1231 0.1277,0.2151 0.1277,0.3016 0.172,0.0423 0.1643,0.6948 0.1643,0.859 0,0.3726 0.5257,0.8698 0.6204,1.2703 0.1067,0.4517 -0.2512,0.3029 -0.4927,0.4021 -0.3906,0.1606 -0.54951,0.632 -0.99451,0.2376 -0.1319,-0.1168 -0.8965,-0.8317 -0.7117,-0.1736 0.083,0.2955 -0.4351,0.2563 -0.6113,0.2833 -0.4028,0.0617 -1.0772,0.1898 -1.4599,0.1553 -0.359,0.0713 -0.6752,-0.0295 -0.6752,-0.4204 0,-0.1843 -0.5169,0.0277 -0.4927,0.1371 0.0382,0.1732 0.1488,0.3241 0.1916,0.4935 -0.4229,0.104 -0.9772,0.111 -1.4508,0.1645 -0.3527,0.0399 -1.4031,0.195 -1.6789,0.0731 -0.1084,-0.0478 0.0786,-0.4937 0.1095,-0.594 0.1751,-0.5688 1.2285,-1.4791 1.0858,-2.0562 -0.0712,0 -0.5548,1.0899 -0.7938,0.8499 -0.1773,-0.1779 -0.3064,-1.3509 -0.3832,-1.6633 -0.1409,0.0476 0.0366,0.8753 0.0821,0.987 0.1955,0.4804 -0.5322,1.0372 -0.5109,1.581 0.0125,0.3181 0.3761,1.1803 -0.2282,1.1241 -0.4463,0.1187 -1.1918,0.0548 -1.6697,0.0548 -0.3018,0 -0.6204,0.1273 -0.6204,-0.2742 0,-0.3114 0.0246,-1.3374 -0.1369,-1.5535 -0.1202,0.1202 -0.0475,0.5813 -0.0548,0.7585 l -0.0365,0.8864 c -0.2882,0 -0.791,-0.1198 -1.0857,-0.2102 -0.8241,-0.253 -0.5912,-0.3275 -0.5293,-0.9778 0.0303,-0.3178 -0.0428,-0.6583 0.0183,-0.9778 0.0215,-0.1126 0.2499,-0.7827 0.1277,-0.8134 -0.1038,0.3184 -0.2803,0.5951 -0.3741,0.9504 -0.1099,0.4167 0.0653,0.7944 -0.0821,1.252 -2.2378,-0.9934 -4.0106,-3.2377 -5.8395,-4.7978 -0.4368,-0.3727 -1.4626,-1.7544 -1.6333,-2.2938 -0.4767,-1.3012 -1.3946,-2.3543 -1.7336,-3.6829 -0.2998,-1.1746 -0.7319,-2.2206 -1.3412,-3.2716 -0.1718,-0.772 -0.6157,-0.9332 -0.4106,-1.6815 0.1463,-0.5341 -0.18,-1.614 -0.3103,-2.1476 -0.0492,-0.2014 -0.3389,-0.831 -0.1459,-0.8956 0.1769,-0.0593 1.0935,0.0215 1.3777,0 0.9026,-0.0684 0.8837,0.228 1.1771,-0.6397 0.3387,-0.0856 0.7846,0.3032 0.7846,-0.2833 0,-0.5367 -0.1228,-0.8735 0.0822,-1.4165 0.2246,-0.5951 1.2907,0.0634 1.615,-0.8956 0.073,-0.018 0.4562,-0.0511 0.4562,-0.1188 -0.7899,-0.2575 -0.6862,0.56 -1.2592,0.5849 -1.1528,0.0501 -0.9539,0.4741 -1.3686,1.4073 -0.4108,0.9243 -0.7972,0.1046 -1.0493,0.329 -0.1607,0.1429 0.3458,0.5118 -0.2646,0.5118 -0.3575,0 -0.7123,-0.2029 -1.0676,-0.265 l -1.5146,-0.2651 c -0.4156,-0.318 -2.3566,-1.8821 -1.9526,-2.4674 0.4252,-0.6158 1.0178,-1.0157 1.8066,-0.8225 0.6818,0.1669 1.3396,0.292 2.053,0.2193 0.2813,-0.0287 0.2861,-0.3083 0.438,-0.3838 0,-0.2218 -0.4623,0.1049 -0.6022,0.1462 -0.2935,0.0865 -0.5768,-0.0168 -0.8121,-0.1919 -0.5913,-0.4402 -1.6913,-0.2363 -2.3176,0.064 -0.5047,0.2419 -0.8641,-0.2203 -1.140497,-0.5849 -0.6461,-0.7534 -1.2064,-1.5417 -0.9489,-2.5405 0.1533,-0.5944 0.8063,-0.4871 1.240897,-0.8134 0.1497,-0.1124 2.0846,-1.4176 2.1259,-1.5445 -0.3638,0 -2.342897,1.256 -2.682497,1.4257 -0.2926,0.1462 -1.1794,1.1586 -1.2227,1.1515 -0.2764,-0.0453 -0.5194,-0.6016 -0.6387,-0.8408 -0.3246,-0.6502 -0.9232,-1.2072 -1.2226,-1.8643 -0.2608,-0.8878 -1.6185,-2.2415 -2.3267,-2.8421 l -3.0384,-2.5771 c -0.4925,-0.4176 -1.3063,-0.6792 -1.6789,-1.2063 -1.2123,-0.8126 -2.2146,-1.4717 -3.7044,-1.6998 l -5.3103,-0.8133 -2.6826,-0.3473 -9.1699,0.3564 -0.0182,-0.7585 c 0.253,-0.0639 0.5565,0.0407 0.8394,-0.0183 0.3477,-0.0724 0.6031,0.2912 0.9763,0.265 0.4634,-0.0326 0.9407,-0.5795 1.1405,-0.9778 0.2608,-0.5201 1.0328,-0.2508 1.4964,-0.3656 0.3341,-0.0828 0.5129,-0.2376 0.8668,-0.2376 0.3349,0 0.63,-0.2841 0.7391,-0.594 0.5521,-0.8312 1.7438,-0.806 2.7099,-0.6488 0.8267,0.1346 1.5633,0.3704 2.3176,0.7037 0.3133,0.1385 1.0211,0.2992 1.2409,0.4934 0.3152,0.2783 -0.1405,0.673 -0.4562,0.658 -0.5642,-0.0268 -1.1775,-0.3982 -1.7063,-0.3198 -0.5494,0.0814 0.6313,0.5881 0.8668,0.6214 0.0508,0.1788 0.899,0.5329 1.0767,0.6671 0.6121,0.4621 0.7218,0.1858 0.1277,-0.1096 0.0037,-0.0257 0.013,-0.0241 0.0183,-0.0457 0.4477,-0.0645 1.0061,-0.2607 1.2591,0.2467 0.0141,0.0283 0.1377,0.2628 0.1551,0.2102 0.1527,0 0.284,-0.3429 0.146,-0.3655 0,-0.1371 0.527,-0.278 0.657,-0.3108 l 0,-0.0182 c -0.3611,-0.0912 -0.8851,0.0345 -0.8851,-0.4752 0,-0.4811 0.4128,-0.4567 0.7117,-0.7129 1.1046,-0.9464 -0.5003,-1.2451 -1.25,-0.594 -0.855,0.7424 -1.1644,-0.14 -2.1625,-0.2376 -0.8819,-0.2754 -1.5102,-0.6921 -2.4453,-0.658 -0.9736,0.0356 -1.7325,-0.1094 -2.719,0.1097 -0.7384,0.1639 -1.1403,0.6683 -1.8066,0.9047 -0.35,0.1242 -0.6719,-0.0883 -0.9581,0.0549 -0.4797,0.2402 -0.6727,0.2754 -1.1496,0.4021 -1.0712,-0.4289 -0.3741,-0.6609 -0.3741,-1.3708 -0.1245,-0.0944 -0.5859,0.3301 -0.6934,0.3838 -0.1359,0.5379 -0.8356,0.2916 -0.6752,0.9687 0.1315,0.555 -0.1099,0.7504 -0.2829,1.2246 -0.1354,0.3709 0.0412,0.7064 -0.0274,0.9778 -0.2503,0.1499 -1.5895,0.0354 -1.9617,0.064 l -2.855901,0.2193 c -1.9999,0.1536 -3.7947,-0.1737 -5.7483,0.329 -0.5687,0.1336 -1.1679,0.2101 -1.7759,0.2537 l 0,0 z"
       class="fil0 str0"
       sodipodi:nodetypes="csccssccccccccsccccccccccccccccssccccccccccccccccccccccccccccccccccccsccscccccccccscccccccccccccccccccccccccccccccccccccccccccccccccccccccccccccccccccccccccccccccccccccccccccccccccccccccccccsccccccccccccscccccccccccccccccccccccsccccsccsscccscsccccccscccccccscccsccccccccccccccsccccccscccccsccccsccccccsccsccscsccccccsscccccccccccccccccccscscccccccccssccccccscscccccscccscccccccccscccccccccccsccccccccccccccccccccccccccccccccccccccccccccccccccccccccsccccccccccccsccccccccccccccccccccccsccccccccccccccccccccccccccccccccccscccccccscccscccccccccccscsccccccscccccccccccssccccccccccccccccccscccsccscccccccccccccccccccccccccccccscccccccccccccccsccccccccccccccccccc"
       inkscape:export-filename="/home/code4sa/Desktop/nigeria.png"
       inkscape:export-xdpi="42.169998"
       inkscape:export-ydpi="42.169998" /></g><text
     xml:space="preserve"
     style="font-style:normal;font-variant:normal;font-weight:normal;font-stretch:normal;font-size:11.28888988px;line-height:125%;font-family:Merriweather;-inkscape-font-specification:Merriweather;letter-spacing:0px;word-spacing:0px;fill:#000000;fill-opacity:1;stroke:none;stroke-width:1px;stroke-linecap:butt;stroke-linejoin:miter;stroke-opacity:1"
     x="49.117485"
     y="124.3198"
     id="text4148"
     sodipodi:linespacing="125%"
     inkscape:export-xdpi="42.169998"
     inkscape:export-ydpi="42.169998"><tspan
       sodipodi:role="line"
       id="tspan4150"
       x="49.117485"
       y="124.3198"
       style="font-size:28.22222519px;fill:#000000;fill-opacity:1"><tspan
   style="fill:#ffffff;fill-opacity:0.78431373"
   id="tspan4143">and</tspan> offshore oil industry</tspan></text>
<text
     xml:space="preserve"
     style="font-style:normal;font-weight:normal;font-size:11.28888988px;line-height:125%;font-family:sans-serif;letter-spacing:0px;word-spacing:0px;fill:#120000;fill-opacity:1;stroke:none;stroke-width:1px;stroke-linecap:butt;stroke-linejoin:miter;stroke-opacity:1"
     x="-0.32291681"
     y="75.329269"
     id="text4138"
     sodipodi:linespacing="125%"><tspan
       sodipodi:role="line"
       id="tspan4140"
       x="-0.32291681"
       y="75.329269"
       style="font-style:normal;font-variant:normal;font-weight:normal;font-stretch:normal;font-size:28.22222519px;font-family:Merriweather;-inkscape-font-specification:Merriweather;fill:#000000;fill-opacity:1"><tspan
   style="fill:#ffffff;fill-opacity:0.78431373"
   id="tspan4151">Between</tspan> oil law </tspan></text>
<text
     xml:space="preserve"
     style="font-style:normal;font-weight:normal;font-size:11.28888893px;line-height:125%;font-family:sans-serif;letter-spacing:0px;word-spacing:0px;fill:#000000;fill-opacity:1;stroke:none;stroke-width:1px;stroke-linecap:butt;stroke-linejoin:miter;stroke-opacity:1"
     x="128.29417"
     y="98.375999"
     id="text4332"
     sodipodi:linespacing="125%"><tspan
       sodipodi:role="line"
       id="tspan4334"
       x="128.29417"
       y="98.375999"
       style="font-style:normal;font-variant:normal;font-weight:normal;font-stretch:normal;font-size:24.69444466px;font-family:Merriweather;-inkscape-font-specification:Merriweather;fill:#000000;fill-opacity:1" /></text>
</svg>